<?xml version="1.0" standalone="no"?>
<!DOCTYPE svg PUBLIC "-//W3C//DTD SVG 20010904//EN"
 "http://www.w3.org/TR/2001/REC-SVG-20010904/DTD/svg10.dtd">
<svg version="1.0" xmlns="http://www.w3.org/2000/svg"
 width="755.000000pt" height="1280.000000pt" viewBox="0 0 755.000000 1280.000000"
 preserveAspectRatio="xMidYMid meet">
<metadata>
Created by potrace 1.15, written by Peter Selinger 2001-2017
</metadata>
<g transform="translate(0.000000,1280.000000) scale(0.100000,-0.100000)"
fill="#ffffff" stroke="none">
<path d="M3145 12783 c-199 -42 -355 -186 -410 -377 -25 -86 -17 -206 18 -278
37 -76 147 -179 234 -221 62 -29 77 -32 163 -32 110 0 150 15 214 80 99 102
102 239 5 345 -23 25 -34 34 -25 20 33 -51 46 -91 46 -145 0 -94 -46 -174
-126 -221 -92 -54 -239 -28 -301 52 -36 48 -39 102 -10 204 27 96 25 110 -25
172 -67 86 -68 155 -1 229 47 51 99 81 196 113 164 53 284 44 442 -33 180 -88
326 -279 380 -496 21 -84 24 -261 6 -355 -55 -284 -196 -500 -636 -975 -176
-189 -494 -557 -540 -625 -75 -109 -75 -168 -2 -325 42 -89 42 -91 39 -190 -9
-269 -8 -299 12 -350 26 -66 98 -141 220 -229 88 -62 402 -353 393 -363 -2 -2
-31 -10 -63 -18 -32 -9 -82 -24 -109 -36 l-51 -20 -64 30 c-186 84 -335 115
-555 116 -185 0 -254 -10 -400 -57 -309 -100 -641 -399 -789 -712 -64 -135
-88 -235 -89 -371 -1 -110 1 -127 29 -205 17 -47 48 -113 70 -145 78 -120 232
-245 351 -287 121 -42 277 -32 394 28 28 14 52 24 53 22 83 -138 233 -232 389
-245 l69 -6 -6 -31 c-12 -67 -17 -233 -8 -276 7 -35 8 -22 5 60 -3 64 1 132 9
175 l13 69 65 13 c130 26 250 107 302 204 19 37 23 59 23 139 0 78 -4 102 -22
135 l-21 40 64 42 c71 45 198 102 248 110 32 5 33 4 68 -73 19 -44 42 -104 49
-134 20 -80 18 -295 -5 -399 -21 -100 -56 -211 -66 -211 -4 0 -27 7 -50 15
-55 20 -134 19 -194 -1 -65 -22 -148 -100 -176 -166 -44 -102 -10 -231 77
-290 41 -29 117 -52 139 -44 9 4 6 -11 -10 -47 -173 -383 -250 -574 -297 -732
-18 -60 -34 -111 -34 -113 -1 -1 -26 22 -56 51 -30 29 -67 63 -82 74 -26 20
-29 30 -38 120 -29 284 -142 531 -339 737 -244 256 -546 386 -895 386 -143 0
-226 -13 -351 -55 -77 -26 -214 -91 -249 -119 -11 -9 18 3 65 27 186 94 362
132 560 124 153 -7 248 -30 387 -97 267 -127 515 -363 636 -605 55 -111 126
-362 115 -409 -2 -9 -51 19 -143 80 -81 55 -216 133 -320 184 -353 176 -669
251 -995 237 -236 -10 -445 -79 -623 -204 -27 -19 -52 -31 -55 -28 -10 9 -8
95 2 129 12 41 -6 27 -37 -28 -30 -53 -57 -131 -57 -163 0 -14 -24 -49 -66
-94 -228 -250 -337 -589 -294 -925 33 -265 139 -477 330 -664 53 -52 104 -109
113 -127 33 -64 140 -185 218 -247 140 -110 369 -222 539 -263 69 -17 92 -33
48 -33 -42 0 -250 -60 -352 -101 -247 -99 -458 -249 -583 -413 -56 -74 -124
-214 -153 -316 -27 -94 -38 -297 -21 -395 15 -83 44 -170 84 -250 33 -66 116
-189 124 -182 2 3 -12 27 -32 53 -50 65 -110 188 -136 276 -30 105 -37 315
-14 429 48 241 177 437 392 596 98 73 233 143 333 174 142 44 339 25 441 -44
19 -12 56 -56 84 -97 64 -96 143 -176 197 -200 24 -10 95 -28 158 -38 139 -24
211 -48 282 -95 85 -57 122 -118 162 -271 46 -173 49 -176 260 -360 232 -202
306 -291 306 -367 0 -62 114 -433 187 -609 68 -166 220 -436 301 -536 28 -35
19 -14 -18 41 -49 71 -121 208 -164 310 -82 192 -168 490 -155 535 13 45 9
273 -6 359 -17 99 -57 246 -91 342 -23 63 -24 79 -22 224 l3 156 32 -28 31
-28 17 -205 c15 -190 51 -435 94 -642 l18 -86 -23 -56 c-22 -54 -22 -56 -4
-56 11 0 25 10 31 22 10 19 14 10 35 -73 42 -165 116 -369 190 -519 74 -152
173 -320 208 -356 12 -11 49 -61 83 -110 86 -123 192 -244 295 -335 87 -76
254 -196 262 -188 3 2 -28 30 -67 61 -83 66 -261 242 -310 308 -138 185 -201
381 -201 625 0 177 35 369 94 529 21 54 24 58 49 51 14 -3 87 -9 162 -12 117
-4 148 -2 220 16 138 35 288 134 391 257 62 75 135 221 150 300 l12 61 64 -53
c86 -71 179 -118 284 -144 85 -22 87 -23 117 -71 16 -27 35 -49 41 -49 13 0
12 10 -5 40 -28 49 -21 57 43 49 31 -4 86 -8 121 -8 44 -1 79 -8 108 -22 60
-29 141 -23 215 15 47 25 188 69 188 58 0 -19 -130 -249 -200 -355 -235 -354
-486 -580 -825 -743 -60 -29 -105 -53 -100 -54 25 0 260 124 355 188 294 198
551 504 756 901 l39 75 76 30 c304 124 545 368 635 643 l28 87 43 -91 c69
-146 87 -231 87 -408 -1 -134 -4 -160 -28 -240 -102 -338 -378 -572 -736 -626
-50 -7 -48 -8 19 -3 199 12 423 138 566 317 198 248 254 561 154 862 -17 50
-46 118 -65 152 l-34 62 10 109 c11 124 1 266 -29 384 l-19 73 64 85 c106 141
184 314 230 515 16 66 19 119 18 300 0 214 -1 223 -32 336 -72 270 -189 468
-391 661 -163 157 -330 259 -540 328 -176 58 -281 73 -523 73 l-206 0 -17 64
c-22 88 -32 253 -16 253 12 0 29 -17 150 -150 45 -50 53 -55 90 -54 48 2 100
33 161 96 70 73 103 137 161 310 l55 168 -48 -54 c-60 -68 -143 -123 -222
-149 -67 -21 -202 -27 -299 -14 l-57 8 6 42 c67 496 323 846 748 1022 49 20
139 48 200 63 98 23 133 26 306 26 213 1 282 -9 446 -64 246 -84 452 -254 597
-496 130 -216 185 -503 139 -724 -48 -231 -144 -375 -338 -508 -11 -7 0 -3 23
9 137 72 256 240 315 446 19 65 23 102 23 228 -1 190 -26 305 -105 466 -170
351 -468 577 -850 645 -138 25 -383 23 -515 -5 -526 -109 -879 -460 -985 -979
-11 -55 -20 -114 -20 -131 0 -19 -5 -31 -13 -31 -25 0 -132 23 -140 29 -4 4 2
42 13 84 49 194 65 506 35 680 -32 182 -109 359 -250 574 l-75 114 -16 112
c-8 62 -28 165 -44 231 -17 65 -30 120 -30 123 0 2 10 -1 21 -8 35 -18 113 -6
153 24 98 76 101 222 5 319 -96 97 -232 101 -356 12 -13 -9 -23 -12 -23 -6 0
14 -149 138 -215 180 -140 87 -303 141 -458 149 -95 6 -98 7 -119 36 l-22 30
30 24 c116 94 275 175 426 214 156 41 340 29 498 -33 162 -63 336 -205 418
-343 23 -38 42 -66 42 -61 0 22 -80 136 -139 199 -114 121 -247 200 -417 249
-100 28 -281 30 -389 4 -144 -35 -280 -98 -401 -186 l-79 -58 -52 72 c-164
225 -255 460 -282 732 -51 509 259 992 719 1120 88 25 288 25 380 1 159 -42
299 -138 378 -259 66 -101 94 -187 100 -303 5 -123 -8 -192 -55 -288 -93 -186
-344 -335 -451 -267 -75 46 -75 160 -1 228 20 20 20 20 -18 27 -54 10 -86 32
-117 79 -52 81 -59 181 -16 253 11 20 18 38 15 41 -10 10 -160 -153 -187 -204
-84 -156 -68 -295 47 -409 102 -103 226 -134 402 -100 238 45 449 237 508 462
54 202 -18 418 -199 599 -68 67 -97 88 -186 131 -174 85 -336 110 -524 79
-228 -38 -410 -129 -552 -277 -235 -246 -335 -535 -306 -878 29 -331 122 -573
313 -818 42 -53 46 -63 33 -74 -13 -10 -22 -4 -59 37 -229 253 -395 550 -439
784 -18 94 -21 294 -6 389 28 171 155 452 304 675 48 70 187 257 310 415 290
372 332 438 380 603 78 271 55 533 -65 735 -45 73 -156 193 -222 236 -151 100
-354 138 -532 100z m360 -3983 c3 -5 -1 -10 -10 -10 -9 0 -13 5 -10 10 3 6 8
10 10 10 2 0 7 -4 10 -10z m289 -46 c164 -32 346 -128 481 -256 l67 -64 -26
-38 c-14 -21 -26 -45 -26 -52 0 -20 -7 -18 -59 15 -69 44 -148 63 -246 60
l-85 -3 -48 54 c-82 94 -252 297 -252 302 0 8 112 -3 194 -18z m-153 -104 c57
-63 111 -124 119 -135 18 -24 -167 145 -230 210 -42 44 -43 46 -19 43 18 -2
56 -37 130 -118z m-233 78 c-13 -18 -34 -47 -46 -65 l-23 -32 -49 31 c-28 17
-50 33 -50 35 0 7 155 60 184 62 4 1 -3 -14 -16 -31z m106 -15 c29 -27 98 -88
152 -138 55 -49 121 -109 147 -132 l48 -41 -31 -16 c-17 -8 -45 -24 -63 -35
l-32 -20 -74 64 c-41 36 -127 102 -191 147 l-117 83 46 67 c25 38 50 68 54 68
5 0 33 -21 61 -47z m-267 -271 c10 -6 9 -24 -3 -83 -12 -54 -15 -111 -12 -210
l4 -136 -34 23 c-144 98 -350 135 -517 94 -44 -11 -88 -23 -97 -26 -45 -14 8
113 74 179 38 38 185 124 195 114 1 -2 -10 -28 -26 -58 -37 -68 -73 -158 -68
-172 2 -6 14 19 26 54 13 35 39 91 57 125 l34 61 73 16 c39 9 81 18 92 21 36
7 190 6 202 -2z m182 -45 c94 -34 237 -124 234 -147 -1 -8 -12 -42 -24 -75
-17 -48 -20 -76 -17 -140 5 -96 27 -143 92 -203 61 -57 125 -83 203 -85 40 -1
64 -7 68 -15 2 -7 8 -49 11 -93 7 -77 6 -81 -12 -75 -79 24 -168 38 -281 43
l-132 6 -33 64 c-45 88 -141 208 -216 268 -45 37 -63 59 -69 85 -13 57 -9 280
6 348 l14 62 36 -6 c20 -4 74 -20 120 -37z m666 -21 c54 -14 117 -45 151 -73
17 -14 23 -33 27 -83 2 -36 12 -81 22 -100 26 -50 100 -125 144 -145 36 -16
41 -23 56 -80 10 -35 16 -67 14 -71 -2 -5 -134 120 -293 279 l-288 287 58 0
c33 0 82 -6 109 -14z m265 -471 c181 -199 165 -169 162 -309 -3 -117 -10 -181
-34 -294 -10 -48 -13 -51 -28 -37 -10 9 -43 66 -74 128 -31 62 -108 195 -170
297 l-114 185 20 40 c25 49 27 139 3 186 -40 76 -108 112 -205 107 l-65 -3
-49 53 c-56 60 -57 56 28 97 l49 24 178 -171 c98 -94 233 -231 299 -303z
m-2026 303 c69 -22 136 -66 165 -106 l20 -28 -54 -32 c-82 -49 -160 -126 -217
-213 -47 -73 -54 -79 -85 -79 -66 0 -139 -44 -169 -102 -16 -31 -19 -63 -3
-35 14 24 73 22 115 -4 l34 -21 -6 -91 c-3 -51 -1 -113 4 -140 9 -45 8 -48
-20 -73 -126 -105 -339 -50 -435 113 -53 90 -68 234 -38 362 40 170 187 355
338 427 116 55 230 62 351 22z m1436 -103 c-26 -51 -25 -90 3 -145 27 -53 76
-82 129 -78 l38 3 20 -59 c27 -79 18 -86 -82 -65 -97 20 -188 92 -224 176 -23
56 -16 192 14 258 l23 49 49 -50 50 -49 -20 -40z m743 24 c40 -102 66 -222 72
-324 5 -103 -4 -85 -30 59 -10 54 -32 123 -56 174 -38 83 -45 114 -33 146 11
28 19 18 47 -55z m-436 -182 c27 -54 7 -49 -30 7 -20 31 -37 59 -37 63 0 12
52 -42 67 -70z m-963 -136 c57 -28 169 -129 226 -203 24 -31 25 -38 5 -38 -31
0 -172 -61 -244 -105 l-73 -45 -41 43 c-60 61 -106 80 -179 75 -52 -4 -63 -9
-99 -44 -22 -22 -47 -60 -57 -86 -9 -27 -19 -48 -22 -48 -3 0 -16 16 -28 36
-74 114 -69 233 14 310 53 49 148 102 229 126 88 26 190 18 269 -21z m1473
-208 c-3 -10 -5 -4 -5 12 0 17 2 24 5 18 2 -7 2 -21 0 -30z m-717 -27 c42 -8
87 -19 101 -25 26 -9 26 -11 17 -68 -14 -95 -73 -294 -94 -322 -4 -4 -183 137
-231 182 -18 17 -33 40 -33 52 0 18 -26 122 -47 189 -6 18 -1 19 103 13 60 -4
143 -13 184 -21z m827 -103 c172 -283 231 -460 240 -730 6 -171 -2 -250 -39
-398 -28 -113 -29 -113 -68 -58 -18 26 -50 68 -70 93 l-37 45 -6 150 c-7 164
-26 261 -77 395 l-31 80 15 152 c8 84 17 195 18 246 2 50 5 92 8 92 3 0 24
-30 47 -67z m-914 -247 c53 -43 97 -83 97 -88 0 -5 -13 -40 -29 -76 -43 -98
-54 -153 -49 -238 4 -64 12 -89 46 -156 l41 -81 -27 -46 c-26 -45 -27 -50 -28
-216 0 -150 -3 -178 -23 -238 -22 -65 -71 -141 -115 -179 -36 -32 -106 -70
-221 -123 -61 -28 -132 -66 -158 -83 -115 -80 -214 -193 -290 -333 -31 -56
-47 -91 -81 -184 -6 -17 -11 -11 -28 32 l-19 53 21 77 c11 42 37 115 57 162
20 47 56 133 80 191 39 94 91 194 184 360 17 30 60 109 96 175 78 142 72 133
84 115 31 -50 27 -132 -9 -173 -8 -9 -13 -20 -9 -23 13 -13 100 91 130 153 39
85 43 191 10 265 l-21 46 30 94 c61 193 79 292 85 465 l6 162 21 -17 c12 -9
65 -52 119 -96z m888 -400 c21 -88 46 -352 35 -364 -4 -4 -44 31 -88 78 l-80
85 26 140 c15 77 29 165 33 195 l6 55 24 -54 c13 -30 33 -91 44 -135z m24
-451 c-4 -33 -11 -81 -16 -106 l-10 -46 -50 -6 c-32 -4 -82 -23 -136 -52 -47
-25 -83 -39 -80 -32 61 148 99 275 134 447 5 23 10 19 85 -60 l79 -85 -6 -60z
m131 -103 c20 -29 35 -55 32 -57 -5 -6 -160 14 -167 21 -2 2 1 29 8 60 6 32
11 71 11 88 l1 31 39 -45 c22 -25 56 -69 76 -98z m-3323 -217 c132 -21 243
-57 352 -113 70 -37 109 -66 178 -134 88 -87 105 -118 66 -118 -96 0 -165
-164 -106 -251 25 -37 81 -79 106 -79 9 0 -2 9 -25 19 -61 28 -89 73 -89 142
1 46 6 63 28 93 33 42 50 53 97 58 33 3 35 1 64 -57 29 -55 31 -65 27 -145 -3
-47 -5 -148 -5 -225 -1 -137 0 -142 30 -206 17 -36 57 -95 88 -132 l56 -66
-20 -48 c-11 -26 -51 -112 -88 -189 -49 -103 -75 -146 -95 -159 -54 -32 -145
-111 -196 -170 -101 -116 -164 -294 -142 -403 27 -137 107 -220 276 -287 137
-54 200 -89 245 -135 48 -49 96 -131 125 -216 18 -51 18 -51 -8 -120 -14 -38
-28 -77 -31 -87 -4 -14 -24 5 -88 84 -125 156 -324 320 -426 353 -26 8 -80 24
-119 37 -86 26 -144 71 -168 131 -21 55 -15 86 41 201 41 82 45 98 42 148 -4
54 -3 57 29 79 61 41 155 152 185 217 65 138 61 273 -11 419 -95 191 -297 299
-492 264 -207 -37 -359 -197 -359 -378 l0 -54 -32 48 c-65 97 -183 150 -317
142 -94 -6 -163 -38 -232 -109 -118 -122 -152 -294 -95 -484 9 -27 14 -50 12
-52 -8 -9 -149 153 -200 231 -104 156 -163 319 -187 521 -34 288 76 615 287
854 42 47 49 51 55 35 4 -11 8 -29 8 -41 1 -12 11 -48 23 -80 70 -188 321
-283 505 -190 62 32 133 109 170 185 38 80 39 185 1 257 -50 95 -138 154 -233
155 -34 0 -45 3 -35 9 25 15 176 51 253 61 98 12 331 5 450 -15z m3559 -112
c3 -38 4 -69 3 -70 -1 -2 -15 29 -32 67 l-31 70 28 0 c27 0 28 -1 32 -67z
m-49 10 c35 -72 65 -153 71 -198 3 -22 9 -49 12 -60 5 -19 -2 -22 -83 -33
-114 -17 -343 -72 -457 -111 -50 -17 -92 -31 -94 -31 -2 0 31 37 72 83 42 45
100 114 129 154 40 55 59 73 83 77 16 4 57 29 90 56 85 72 136 110 145 110 5
0 19 -21 32 -47z m-490 -1 l35 -29 -59 -113 c-59 -111 -170 -309 -193 -342 -7
-9 -77 -50 -156 -90 -80 -41 -187 -99 -237 -130 -51 -31 -93 -54 -93 -52 0 2
47 66 103 141 155 206 296 423 367 562 32 65 57 78 146 80 42 1 58 -4 87 -27z
m-3836 -2 c-33 -26 -77 -115 -77 -155 0 -17 7 -40 15 -51 8 -10 15 -23 15 -27
0 -16 -79 36 -120 78 l-41 42 58 39 c107 71 213 123 150 74z m3930 -79 l42
-38 -43 -54 c-50 -63 -270 -304 -289 -316 -7 -4 -6 3 4 17 30 48 167 296 200
363 18 37 36 67 39 67 3 -1 24 -18 47 -39z m913 -222 c336 -34 628 -176 875
-423 254 -255 405 -608 405 -948 0 -187 -58 -436 -140 -598 -31 -63 -119 -201
-157 -248 l-19 -23 -23 58 c-77 188 -254 423 -418 554 l-72 57 48 32 c148 94
228 245 238 446 5 100 3 120 -21 205 -76 265 -277 495 -554 634 -145 72 -294
115 -493 140 l-46 6 -10 54 c-8 46 -7 55 6 58 33 9 283 7 381 -4z m-409 -53
l16 -53 -131 -6 c-151 -7 -311 -35 -429 -77 -70 -24 -78 -26 -58 -9 96 79 330
166 516 192 70 10 69 10 86 -47z m42 -186 c5 -41 6 -158 3 -260 -4 -146 -11
-212 -31 -310 -30 -145 -71 -274 -115 -361 -17 -33 -29 -63 -27 -66 11 -11 87
168 120 287 50 172 61 269 62 507 0 122 0 221 1 220 0 -1 42 -94 92 -207 50
-113 118 -263 151 -335 l60 -130 -46 -14 c-63 -18 -144 -99 -166 -165 -9 -27
-17 -75 -16 -105 1 -43 3 -50 8 -30 24 75 76 109 168 108 40 0 52 -3 38 -8
-61 -26 -81 -117 -37 -178 l21 -30 -52 14 c-234 61 -508 63 -768 7 -21 -5 -29
1 -51 33 -14 21 -52 70 -84 109 -32 39 -71 86 -86 105 l-28 34 17 -45 c20 -55
25 -254 6 -286 -7 -11 -43 -32 -83 -48 -144 -57 -371 -211 -524 -356 -38 -36
-66 -56 -62 -45 5 11 12 33 17 49 14 48 76 162 119 221 22 30 91 109 154 174
183 194 201 245 198 560 -2 244 -1 249 86 375 44 65 52 70 147 116 189 91 401
140 590 137 l110 -2 8 -75z m159 61 c267 -46 487 -156 658 -330 127 -128 215
-275 251 -421 19 -78 17 -231 -5 -305 -38 -127 -123 -243 -222 -301 l-41 -24
-85 53 c-47 30 -99 59 -115 66 -23 9 -37 27 -56 71 -24 56 -24 59 -7 75 10 9
28 40 40 68 61 141 -38 302 -198 326 l-45 6 -64 140 c-85 183 -220 487 -244
548 -23 57 -30 55 133 28z m-2894 -702 c12 -18 10 -27 -18 -72 -32 -53 -85
-121 -78 -101 16 50 74 194 78 194 3 0 11 -9 18 -21z m-1528 -101 c69 -31 116
-78 148 -146 21 -47 24 -65 20 -136 -6 -113 -34 -163 -124 -224 -11 -7 -5 -6
12 3 69 32 116 111 131 220 l6 47 13 -30 c19 -46 87 -115 138 -141 26 -12 71
-25 101 -28 l55 -6 0 -188 c0 -210 9 -268 52 -350 35 -68 83 -116 162 -163 70
-42 70 -42 -114 -25 -275 25 -537 112 -740 244 -69 45 -240 205 -240 225 0 4
-15 30 -33 57 -80 119 -107 315 -58 433 84 203 283 291 471 208z m1675 -112
c82 -128 172 -317 196 -416 18 -71 21 -104 16 -215 -5 -140 -26 -232 -85 -368
l-29 -69 -61 100 c-177 287 -233 471 -218 715 6 97 43 276 75 361 l11 28 19
-23 c10 -13 44 -64 76 -113z m-923 -196 c16 -47 22 -89 23 -152 0 -111 -8
-121 -69 -79 -25 17 -52 41 -61 53 -24 35 -19 95 10 130 13 16 29 48 35 71 19
72 20 74 30 57 6 -8 20 -44 32 -80z m4040 -81 c17 -39 17 -41 0 -34 -9 4 -42
16 -72 28 -53 21 -53 22 -24 27 16 4 38 12 49 18 24 13 23 13 47 -39z m-478
20 c21 -6 46 -12 55 -14 131 -25 337 -131 446 -228 l40 -36 -51 -1 c-159 -1
-304 73 -403 205 -16 22 -19 24 -10 6 17 -35 87 -109 135 -142 75 -51 140 -72
253 -78 96 -6 105 -8 122 -31 34 -47 124 -395 154 -595 22 -148 26 -139 -49
-111 -151 57 -372 98 -596 112 -63 4 -123 11 -132 16 -13 6 -16 5 -12 -5 4
-11 -12 -15 -78 -16 -139 -3 -269 -45 -364 -116 l-31 -24 5 124 c4 111 2 133
-19 197 -19 61 -32 82 -80 131 -59 58 -97 78 -60 31 52 -67 66 -216 31 -343
-11 -40 -46 -139 -76 -219 -31 -81 -61 -162 -66 -180 -5 -18 -34 -71 -65 -118
-104 -161 -189 -364 -226 -544 -9 -41 -25 -120 -36 -174 -12 -55 -25 -104 -30
-109 -12 -12 -123 24 -117 37 41 86 101 254 118 327 18 77 22 125 22 269 1
152 -2 187 -23 264 -26 101 -51 256 -41 256 4 0 33 -9 65 -20 32 -11 62 -20
66 -20 5 0 -11 20 -35 44 -80 80 -108 170 -76 243 22 50 48 69 120 84 127 27
168 75 156 183 -4 34 -9 91 -13 127 -10 116 30 153 182 169 46 5 97 16 114 24
42 22 58 77 45 158 -10 59 -10 60 15 70 55 21 177 50 240 58 79 10 251 4 305
-11z m-2228 -648 c-21 -110 -45 -263 -73 -465 l-8 -59 -34 54 c-33 53 -33 55
-27 139 10 128 31 252 98 590 l11 55 29 -94 29 -93 -25 -127z m2982 130 c75
-104 151 -256 186 -371 30 -100 58 -252 48 -262 -4 -4 -53 16 -110 45 -91 46
-102 55 -106 82 -3 17 -10 66 -16 110 -20 145 -86 430 -125 540 -10 27 46 -38
123 -144z m-2872 -238 l30 -88 -17 -95 c-15 -84 -36 -240 -54 -413 l-7 -59
-25 49 c-14 26 -31 57 -37 68 -19 31 -1 228 46 503 12 67 24 122 27 122 4 0
20 -39 37 -87z m103 -293 c5 0 16 -29 25 -65 16 -64 16 -66 -8 -113 -13 -26
-38 -87 -56 -137 -18 -49 -35 -92 -37 -95 -2 -2 -2 18 1 45 33 282 58 439 64
393 2 -16 7 -28 11 -28z m2703 5 c77 -20 78 -21 78 -142 l0 -82 -82 -25 c-46
-14 -99 -30 -118 -35 -19 -5 -28 -10 -19 -10 15 -1 160 38 202 54 16 7 17 -2
17 -106 0 -185 -38 -404 -106 -615 -34 -107 -37 -112 -66 -116 -65 -10 -75 -2
-80 66 -12 147 -139 290 -278 312 -38 6 -41 9 -36 33 33 171 31 408 -4 509
-19 53 -20 65 -9 79 17 20 122 69 192 88 66 19 217 14 309 -10z m189 -76 c43
-23 79 -44 79 -48 0 -6 -163 -92 -166 -88 -1 1 -4 41 -8 90 -4 61 -3 87 5 87
6 0 47 -19 90 -41z m-2101 18 c0 -1 4 -17 9 -35 12 -40 6 -41 -14 -2 -18 34
-18 40 -5 40 6 0 10 -1 10 -3z m2221 -104 c17 -45 5 -404 -16 -483 -32 -122
-91 -228 -169 -306 -64 -64 -150 -123 -163 -111 -2 3 10 49 27 103 64 199 97
388 107 601 l6 132 86 44 c47 25 92 45 99 46 7 0 17 -11 23 -26z m-1264 -289
c-3 -3 -12 -4 -19 -1 -8 3 -5 6 6 6 11 1 17 -2 13 -5z m-1909 -557 c0 -81 -2
-146 -5 -143 -7 7 -40 230 -47 321 l-7 80 30 -55 c29 -54 30 -58 29 -203z
m1017 -249 c-26 -84 -142 -225 -230 -277 -52 -32 -156 -74 -163 -67 -1 2 8 29
22 60 25 57 163 218 215 252 30 20 119 53 144 54 14 0 17 -5 12 -22z"/>
<path d="M711 4543 c-69 -36 -101 -90 -101 -170 0 -133 89 -209 243 -204 41 1
51 15 12 17 -14 1 -33 8 -42 15 -21 18 -52 87 -53 116 0 22 0 22 25 -2 13 -14
33 -25 45 -25 38 0 89 28 104 59 49 93 -20 208 -131 218 -39 4 -58 -1 -102
-24z"/>
<path d="M720 3880 c8 -5 20 -10 25 -10 6 0 3 5 -5 10 -8 5 -19 10 -25 10 -5
0 -3 -5 5 -10z"/>
<path d="M780 3860 c8 -5 20 -10 25 -10 6 0 3 5 -5 10 -8 5 -19 10 -25 10 -5
0 -3 -5 5 -10z"/>
<path d="M888 3833 c7 -3 16 -2 19 1 4 3 -2 6 -13 5 -11 0 -14 -3 -6 -6z"/>
<path d="M4886 4250 c-19 -27 -68 -86 -108 -132 -39 -46 -62 -74 -49 -63 27
24 148 166 180 213 36 52 16 37 -23 -18z"/>
<path d="M4659 4003 l-34 -38 38 34 c20 19 37 36 37 38 0 8 -8 0 -41 -34z"/>
<path d="M4584 3938 l-19 -23 23 19 c21 18 27 26 19 26 -2 0 -12 -10 -23 -22z"/>
<path d="M4514 3878 l-19 -23 23 19 c21 18 27 26 19 26 -2 0 -12 -10 -23 -22z"/>
<path d="M3182 3215 c0 -16 2 -22 5 -12 2 9 2 23 0 30 -3 6 -5 -1 -5 -18z"/>
<path d="M3171 3164 c0 -11 3 -14 6 -6 3 7 2 16 -1 19 -3 4 -6 -2 -5 -13z"/>
<path d="M3161 3094 c0 -11 3 -14 6 -6 3 7 2 16 -1 19 -3 4 -6 -2 -5 -13z"/>
<path d="M5620 2950 l-55 -7 50 -1 c28 0 68 3 90 7 l40 9 -35 -1 c-19 0 -60
-3 -90 -7z"/>
<path d="M4962 8615 c0 -5 6 -26 13 -45 7 -19 14 -28 14 -20 0 8 -6 29 -14 45
-7 17 -13 26 -13 20z"/>
<path d="M4991 8514 c0 -11 3 -14 6 -6 3 7 2 16 -1 19 -3 4 -6 -2 -5 -13z"/>
<path d="M5002 8460 c0 -19 2 -27 5 -17 2 9 2 25 0 35 -3 9 -5 1 -5 -18z"/>
<path d="M5001 8304 c0 -11 3 -14 6 -6 3 7 2 16 -1 19 -3 4 -6 -2 -5 -13z"/>
<path d="M2671 6509 c-1 -18 30 -112 35 -107 2 2 -5 31 -16 63 -10 33 -19 53
-19 44z"/>
<path d="M2710 6386 c0 -11 30 -66 36 -66 2 0 -3 15 -12 33 -19 36 -24 44 -24
33z"/>
<path d="M2759 6294 c14 -30 97 -120 134 -146 18 -12 2 7 -34 42 -36 36 -76
79 -88 95 -12 17 -18 21 -12 9z"/>
<path d="M6718 6295 c-25 -8 -75 -34 -110 -58 -209 -140 -223 -430 -30 -623
52 -52 66 -46 27 11 -58 86 -9 217 118 317 l42 33 -23 -36 c-65 -107 21 -238
163 -247 154 -10 275 115 275 284 0 59 -5 81 -30 131 -60 120 -175 194 -310
200 -47 2 -92 -3 -122 -12z"/>
<path d="M7130 5500 c-8 -5 -10 -10 -5 -10 6 0 17 5 25 10 8 5 11 10 5 10 -5
0 -17 -5 -25 -10z"/>
<path d="M6958 5453 c6 -2 18 -2 25 0 6 3 1 5 -13 5 -14 0 -19 -2 -12 -5z"/>
<path d="M1377 2649 c-103 -24 -197 -103 -245 -207 -38 -81 -38 -195 0 -267
53 -100 138 -154 244 -155 76 0 137 30 177 86 48 68 49 137 1 193 -31 38 -27
38 42 4 68 -33 148 -116 165 -171 10 -36 10 -48 -4 -84 -34 -84 6 -55 49 37
73 157 45 344 -67 457 -94 94 -237 136 -362 107z"/>
<path d="M5728 1423 c7 -3 16 -2 19 1 4 3 -2 6 -13 5 -11 0 -14 -3 -6 -6z"/>
<path d="M4572 853 c-24 -8 -41 -17 -39 -19 4 -5 97 26 97 32 0 6 -11 4 -58
-13z"/>
<path d="M4358 783 c7 -3 16 -2 19 1 4 3 -2 6 -13 5 -11 0 -14 -3 -6 -6z"/>
</g>
</svg>
